<mxfile host="app.diagrams.net" agent="Mozilla/5.0 (Windows NT 10.0; Win64; x64; rv:130.0) Gecko/20100101 Firefox/130.0" version="24.7.17">
  <diagram name="Page-1" id="KMPjyhVr3maGkw2VPWel">
    <mxGraphModel dx="1434" dy="754" grid="1" gridSize="10" guides="1" tooltips="1" connect="1" arrows="1" fold="1" page="1" pageScale="1" pageWidth="850" pageHeight="1100" math="0" shadow="0">
      <root>
        <mxCell id="0" />
        <mxCell id="1" parent="0" />
        <mxCell id="L1-MCBq6FeA5BybqpY2v-4" style="edgeStyle=orthogonalEdgeStyle;rounded=0;orthogonalLoop=1;jettySize=auto;html=1;exitX=1;exitY=0.5;exitDx=0;exitDy=0;sketch=1;curveFitting=1;jiggle=2;labelBackgroundColor=none;strokeColor=#A8201A;fontColor=default;" edge="1" parent="1" source="L1-MCBq6FeA5BybqpY2v-1" target="L1-MCBq6FeA5BybqpY2v-2">
          <mxGeometry relative="1" as="geometry" />
        </mxCell>
        <mxCell id="L1-MCBq6FeA5BybqpY2v-1" value="&lt;b&gt;Splash Screen&lt;/b&gt;" style="whiteSpace=wrap;html=1;aspect=fixed;sketch=1;curveFitting=1;jiggle=2;rounded=0;labelBackgroundColor=none;fillColor=#FAE5C7;strokeColor=#0F8B8D;fontColor=#143642;" vertex="1" parent="1">
          <mxGeometry x="41" y="251" width="100" height="100" as="geometry" />
        </mxCell>
        <mxCell id="L1-MCBq6FeA5BybqpY2v-6" value="" style="edgeStyle=orthogonalEdgeStyle;rounded=0;orthogonalLoop=1;jettySize=auto;html=1;sketch=1;curveFitting=1;jiggle=2;labelBackgroundColor=none;strokeColor=#A8201A;fontColor=default;" edge="1" parent="1" source="L1-MCBq6FeA5BybqpY2v-2" target="L1-MCBq6FeA5BybqpY2v-5">
          <mxGeometry relative="1" as="geometry" />
        </mxCell>
        <mxCell id="L1-MCBq6FeA5BybqpY2v-18" value="Options" style="edgeLabel;html=1;align=center;verticalAlign=middle;resizable=0;points=[];sketch=1;curveFitting=1;jiggle=2;rounded=0;labelBackgroundColor=none;fontColor=#143642;" vertex="1" connectable="0" parent="L1-MCBq6FeA5BybqpY2v-6">
          <mxGeometry x="-0.2" y="3" relative="1" as="geometry">
            <mxPoint x="20" as="offset" />
          </mxGeometry>
        </mxCell>
        <mxCell id="L1-MCBq6FeA5BybqpY2v-9" style="edgeStyle=orthogonalEdgeStyle;rounded=0;orthogonalLoop=1;jettySize=auto;html=1;exitX=1;exitY=0.5;exitDx=0;exitDy=0;entryX=0;entryY=0.5;entryDx=0;entryDy=0;sketch=1;curveFitting=1;jiggle=2;labelBackgroundColor=none;strokeColor=#A8201A;fontColor=default;" edge="1" parent="1" source="L1-MCBq6FeA5BybqpY2v-2" target="L1-MCBq6FeA5BybqpY2v-3">
          <mxGeometry relative="1" as="geometry" />
        </mxCell>
        <mxCell id="L1-MCBq6FeA5BybqpY2v-17" value="Play Game" style="edgeLabel;html=1;align=center;verticalAlign=middle;resizable=0;points=[];sketch=1;curveFitting=1;jiggle=2;rounded=0;labelBackgroundColor=none;fontColor=#143642;" vertex="1" connectable="0" parent="L1-MCBq6FeA5BybqpY2v-9">
          <mxGeometry x="0.0222" y="1" relative="1" as="geometry">
            <mxPoint y="-11" as="offset" />
          </mxGeometry>
        </mxCell>
        <mxCell id="L1-MCBq6FeA5BybqpY2v-2" value="&lt;div&gt;&lt;b&gt;Title Screen&lt;/b&gt;&lt;/div&gt;&lt;div&gt;&lt;br&gt;&lt;/div&gt;&lt;div&gt;Play Game&lt;/div&gt;&lt;div&gt;Options&lt;/div&gt;&lt;div&gt;Exit Game&lt;br&gt;&lt;/div&gt;" style="whiteSpace=wrap;html=1;aspect=fixed;sketch=1;curveFitting=1;jiggle=2;rounded=0;labelBackgroundColor=none;fillColor=#FAE5C7;strokeColor=#0F8B8D;fontColor=#143642;" vertex="1" parent="1">
          <mxGeometry x="211" y="251" width="100" height="100" as="geometry" />
        </mxCell>
        <mxCell id="L1-MCBq6FeA5BybqpY2v-15" style="edgeStyle=orthogonalEdgeStyle;rounded=0;orthogonalLoop=1;jettySize=auto;html=1;exitX=0.5;exitY=0;exitDx=0;exitDy=0;entryX=0.5;entryY=1;entryDx=0;entryDy=0;sketch=1;curveFitting=1;jiggle=2;labelBackgroundColor=none;strokeColor=#A8201A;fontColor=default;" edge="1" parent="1" source="L1-MCBq6FeA5BybqpY2v-3" target="L1-MCBq6FeA5BybqpY2v-12">
          <mxGeometry relative="1" as="geometry" />
        </mxCell>
        <mxCell id="L1-MCBq6FeA5BybqpY2v-16" value="Pause Game" style="edgeLabel;html=1;align=center;verticalAlign=middle;resizable=0;points=[];sketch=1;curveFitting=1;jiggle=2;rounded=0;labelBackgroundColor=none;fontColor=#143642;" vertex="1" connectable="0" parent="L1-MCBq6FeA5BybqpY2v-15">
          <mxGeometry x="-0.04" relative="1" as="geometry">
            <mxPoint as="offset" />
          </mxGeometry>
        </mxCell>
        <mxCell id="L1-MCBq6FeA5BybqpY2v-21" style="edgeStyle=orthogonalEdgeStyle;rounded=0;orthogonalLoop=1;jettySize=auto;html=1;entryX=0;entryY=0.5;entryDx=0;entryDy=0;sketch=1;curveFitting=1;jiggle=2;labelBackgroundColor=none;strokeColor=#A8201A;fontColor=default;" edge="1" parent="1" source="L1-MCBq6FeA5BybqpY2v-3" target="L1-MCBq6FeA5BybqpY2v-19">
          <mxGeometry relative="1" as="geometry" />
        </mxCell>
        <mxCell id="L1-MCBq6FeA5BybqpY2v-27" value="Game Over" style="edgeLabel;html=1;align=center;verticalAlign=middle;resizable=0;points=[];sketch=1;curveFitting=1;jiggle=2;rounded=0;labelBackgroundColor=none;fontColor=#143642;" vertex="1" connectable="0" parent="L1-MCBq6FeA5BybqpY2v-21">
          <mxGeometry x="-0.16" y="-2" relative="1" as="geometry">
            <mxPoint x="5" y="-12" as="offset" />
          </mxGeometry>
        </mxCell>
        <mxCell id="L1-MCBq6FeA5BybqpY2v-3" value="&lt;div&gt;&lt;b&gt;Game Play&lt;/b&gt;&lt;/div&gt;&lt;div&gt;&lt;b&gt;&lt;br&gt;&lt;/b&gt;&lt;/div&gt;&lt;div&gt;Pause Game&lt;br&gt;&lt;/div&gt;" style="shape=document;whiteSpace=wrap;html=1;boundedLbl=1;sketch=1;curveFitting=1;jiggle=2;rounded=0;labelBackgroundColor=none;fillColor=#FAE5C7;strokeColor=#0F8B8D;fontColor=#143642;" vertex="1" parent="1">
          <mxGeometry x="401" y="261" width="120" height="80" as="geometry" />
        </mxCell>
        <mxCell id="L1-MCBq6FeA5BybqpY2v-5" value="&lt;b&gt;Options&lt;/b&gt;" style="whiteSpace=wrap;html=1;aspect=fixed;sketch=1;curveFitting=1;jiggle=2;rounded=0;labelBackgroundColor=none;fillColor=#FAE5C7;strokeColor=#0F8B8D;fontColor=#143642;" vertex="1" parent="1">
          <mxGeometry x="211" y="419" width="100" height="100" as="geometry" />
        </mxCell>
        <mxCell id="L1-MCBq6FeA5BybqpY2v-13" style="edgeStyle=orthogonalEdgeStyle;rounded=0;orthogonalLoop=1;jettySize=auto;html=1;entryX=0.5;entryY=0;entryDx=0;entryDy=0;sketch=1;curveFitting=1;jiggle=2;labelBackgroundColor=none;strokeColor=#A8201A;fontColor=default;" edge="1" parent="1" source="L1-MCBq6FeA5BybqpY2v-12" target="L1-MCBq6FeA5BybqpY2v-2">
          <mxGeometry relative="1" as="geometry" />
        </mxCell>
        <mxCell id="L1-MCBq6FeA5BybqpY2v-14" value="&lt;div&gt;Quit&lt;/div&gt;" style="edgeLabel;html=1;align=center;verticalAlign=middle;resizable=0;points=[];sketch=1;curveFitting=1;jiggle=2;rounded=0;labelBackgroundColor=none;fontColor=#143642;" vertex="1" connectable="0" parent="L1-MCBq6FeA5BybqpY2v-13">
          <mxGeometry x="-0.5417" y="-1" relative="1" as="geometry">
            <mxPoint x="-15" y="-8" as="offset" />
          </mxGeometry>
        </mxCell>
        <mxCell id="L1-MCBq6FeA5BybqpY2v-12" value="&lt;div&gt;&lt;b&gt;Pause Menu&lt;/b&gt;&lt;/div&gt;&lt;div&gt;&lt;b&gt;&lt;br&gt;&lt;/b&gt;&lt;/div&gt;&lt;div&gt;Unpause&lt;/div&gt;&lt;div&gt;Quit&lt;br&gt;&lt;/div&gt;" style="whiteSpace=wrap;html=1;aspect=fixed;sketch=1;curveFitting=1;jiggle=2;rounded=0;labelBackgroundColor=none;fillColor=#FAE5C7;strokeColor=#0F8B8D;fontColor=#143642;" vertex="1" parent="1">
          <mxGeometry x="411" y="111" width="100" height="100" as="geometry" />
        </mxCell>
        <mxCell id="L1-MCBq6FeA5BybqpY2v-25" style="edgeStyle=orthogonalEdgeStyle;rounded=0;orthogonalLoop=1;jettySize=auto;html=1;sketch=1;curveFitting=1;jiggle=2;labelBackgroundColor=none;strokeColor=#A8201A;fontColor=default;" edge="1" parent="1" source="L1-MCBq6FeA5BybqpY2v-19">
          <mxGeometry relative="1" as="geometry">
            <mxPoint x="261" y="161" as="targetPoint" />
            <Array as="points">
              <mxPoint x="631" y="41" />
              <mxPoint x="262" y="41" />
            </Array>
          </mxGeometry>
        </mxCell>
        <mxCell id="L1-MCBq6FeA5BybqpY2v-26" value="Return to Title" style="edgeLabel;html=1;align=center;verticalAlign=middle;resizable=0;points=[];sketch=1;curveFitting=1;jiggle=2;rounded=0;labelBackgroundColor=none;fontColor=#143642;" vertex="1" connectable="0" parent="L1-MCBq6FeA5BybqpY2v-25">
          <mxGeometry x="0.1559" y="-2" relative="1" as="geometry">
            <mxPoint x="21" y="-8" as="offset" />
          </mxGeometry>
        </mxCell>
        <mxCell id="L1-MCBq6FeA5BybqpY2v-19" value="&lt;div&gt;&lt;b&gt;Game Over&lt;/b&gt;&lt;/div&gt;&lt;div&gt;&lt;b&gt;&lt;br&gt;&lt;/b&gt;&lt;/div&gt;&lt;div&gt;Retry&lt;/div&gt;&lt;div&gt;Return to Title&lt;br&gt;&lt;/div&gt;" style="whiteSpace=wrap;html=1;aspect=fixed;sketch=1;curveFitting=1;jiggle=2;rounded=0;labelBackgroundColor=none;fillColor=#FAE5C7;strokeColor=#0F8B8D;fontColor=#143642;" vertex="1" parent="1">
          <mxGeometry x="660" y="251" width="100" height="100" as="geometry" />
        </mxCell>
        <mxCell id="L1-MCBq6FeA5BybqpY2v-23" style="edgeStyle=orthogonalEdgeStyle;rounded=0;orthogonalLoop=1;jettySize=auto;html=1;entryX=0.408;entryY=1;entryDx=0;entryDy=0;entryPerimeter=0;sketch=1;curveFitting=1;jiggle=2;labelBackgroundColor=none;strokeColor=#A8201A;fontColor=default;" edge="1" parent="1" source="L1-MCBq6FeA5BybqpY2v-19" target="L1-MCBq6FeA5BybqpY2v-3">
          <mxGeometry relative="1" as="geometry">
            <Array as="points">
              <mxPoint x="721" y="411" />
              <mxPoint x="450" y="411" />
            </Array>
          </mxGeometry>
        </mxCell>
        <mxCell id="L1-MCBq6FeA5BybqpY2v-24" value="Retry" style="edgeLabel;html=1;align=center;verticalAlign=middle;resizable=0;points=[];sketch=1;curveFitting=1;jiggle=2;rounded=0;labelBackgroundColor=none;fontColor=#143642;" vertex="1" connectable="0" parent="L1-MCBq6FeA5BybqpY2v-23">
          <mxGeometry x="-0.0868" relative="1" as="geometry">
            <mxPoint x="-16" y="-9" as="offset" />
          </mxGeometry>
        </mxCell>
      </root>
    </mxGraphModel>
  </diagram>
</mxfile>
